<svg xmlns="http://www.w3.org/2000/svg" xmlns:xlink="http://www.w3.org/1999/xlink" width="250" zoomAndPan="magnify" viewBox="0 0 187.5 62.999997" height="84" preserveAspectRatio="xMidYMid meet" version="1.0"><defs><g/><clipPath id="7350f3ea7f"><path d="M 47.429688 26.144531 L 48.871094 26.144531 L 48.871094 31.199219 L 47.429688 31.199219 Z M 47.429688 26.144531 " clip-rule="nonzero"/></clipPath><clipPath id="1271f7a46e"><path d="M 47.640625 5.019531 L 68.941406 5.019531 L 68.941406 25.84375 L 47.640625 25.84375 Z M 47.640625 5.019531 " clip-rule="nonzero"/></clipPath></defs><g clip-path="url(#7350f3ea7f)"><path fill="#f8c9e6" d="M 48.816406 26.152344 C 48.816406 26.152344 48.515625 26.347656 48.433594 26.511719 C 48.347656 26.679688 48.175781 27.132812 48.023438 27.769531 C 47.867188 28.40625 47.554688 28.496094 47.457031 28.871094 C 47.355469 29.246094 47.582031 29.335938 47.65625 29.855469 C 47.726562 30.378906 47.878906 31.28125 47.980469 31.191406 C 48.085938 31.105469 48.132812 30.886719 48.105469 30.34375 C 48.082031 29.800781 48.175781 29.992188 48.65625 29.453125 C 49.140625 28.910156 48.636719 28.683594 48.589844 27.570312 C 48.546875 26.457031 48.816406 26.152344 48.816406 26.152344 " fill-opacity="1" fill-rule="nonzero"/></g><g clip-path="url(#1271f7a46e)"><path fill="#f8c9e6" d="M 68.542969 8.5625 L 65.558594 5.457031 C 65.015625 4.886719 64.105469 4.871094 63.535156 5.414062 L 53.515625 15.042969 C 52.949219 15.585938 52.929688 16.496094 53.476562 17.066406 L 54.351562 17.976562 L 50.953125 21.34375 L 51.207031 21.625 L 47.648438 24.222656 L 48.957031 25.828125 L 51.832031 22.308594 L 52.105469 22.605469 L 55.339844 19.003906 L 56.460938 20.171875 C 57.003906 20.738281 57.914062 20.753906 58.480469 20.210938 L 68.503906 10.582031 C 69.070312 10.039062 69.089844 9.128906 68.542969 8.5625 " fill-opacity="1" fill-rule="nonzero"/></g><path stroke-linecap="butt" transform="matrix(0.492359, -0.227713, 0.227713, 0.492359, 22.218228, 44.636683)" fill="none" stroke-linejoin="miter" d="M 2.22213 6.605214 C 2.22242 15.181723 0.402714 15.942737 0.398156 19.177595 C 0.40315 21.139539 2.593027 21.001951 3.443488 20.998597 L 6.797542 21.002745 C 7.638446 21.002904 9.836657 21.138917 9.831663 19.176974 C 9.831646 16.003469 8.077044 15.199911 8.011071 7.005578 L 14.812137 19.901596 C 15.289986 21.098449 17.010598 20.997708 17.732306 20.998276 L 21.112013 20.998421 C 21.943357 21.002093 24.148104 21.141129 24.149646 19.182208 C 24.147668 15.944327 22.326647 15.181453 22.326356 6.604944 C 22.326066 -1.971565 24.152308 -2.729556 24.147307 -5.960902 C 24.151871 -7.926359 21.945901 -7.78828 21.111533 -7.785416 L 17.731826 -7.785561 C 16.890923 -7.78572 14.695735 -7.928269 14.69117 -5.962812 C 14.697723 -2.786285 16.452325 -1.982727 16.512252 6.224677 L 9.696154 -6.741763 L 9.696644 -6.725669 C 9.194122 -7.88633 7.512235 -7.783546 6.797063 -7.781092 L 3.443009 -7.78524 C 2.59557 -7.788422 0.397359 -7.924435 0.402353 -5.962491 C 0.397795 -2.727633 2.218816 -1.96476 2.22213 6.605214 Z M 2.22213 6.605214 " stroke="#ff66c4" stroke-width="1.599808" stroke-opacity="1" stroke-miterlimit="4"/><path stroke-linecap="butt" transform="matrix(0.509549, -0.186092, 0.186092, 0.509549, 34.933995, 38.83451)" fill="none" stroke-linejoin="miter" d="M 0.496838 11.001104 C 0.499354 17.165558 4.140605 21.301164 8.57385 21.295014 C 11.332468 21.298229 11.716767 20.120011 12.873985 20.121002 C 13.953682 20.124347 13.83147 21.298622 15.47163 21.299669 C 18.294241 21.295589 20.531617 20.081186 20.52978 18.301982 C 20.528591 16.500017 19.007821 15.584312 19.008022 11.007731 C 19.008402 6.745524 20.368229 4.827327 20.37145 2.950311 C 20.369201 1.025302 18.628579 0.711587 17.7925 0.712887 C 16.849375 0.713423 16.127933 1.00957 14.073115 1.010409 C 13.075232 1.013945 12.296203 0.691106 9.719034 0.715828 C 6.800435 0.730848 0.496717 2.668021 0.496838 11.001104 Z M 9.872291 5.984739 C 10.93599 5.989907 11.653626 7.992197 11.656825 11.006138 C 11.651436 14.001611 10.93624 16.001911 9.870071 16.003507 C 8.813136 16.000809 8.095499 13.99852 8.100888 11.003047 C 8.09769 7.989106 8.812885 5.988806 9.872291 5.984739 Z M 9.872291 5.984739 " stroke="#ff66c4" stroke-width="1.599808" stroke-opacity="1" stroke-miterlimit="4"/><path stroke-linecap="butt" transform="matrix(0.51977, -0.155275, 0.155275, 0.51977, 45.99181, 34.888405)" fill="none" stroke-linejoin="miter" d="M 2.154516 11.004055 C 2.158069 14.665092 0.361387 17.081888 0.362481 19.216573 C 0.359192 21.13952 2.241283 21.002843 3.077218 20.997047 L 8.877778 21.001361 C 9.720613 20.997625 11.593376 21.143745 11.596665 19.220798 C 11.596723 17.48477 9.776476 14.445898 9.775245 11.003501 C 9.774219 9.522671 9.754681 6.946585 9.755648 4.804999 C 9.755395 1.610901 8.633556 0.712114 7.640362 0.716024 C 7.116167 0.709734 4.917391 1.353033 3.938974 1.609364 C 2.135905 2.085292 0.201656 2.446878 0.201879 3.829769 C 0.200196 5.948594 2.159769 6.609146 2.154516 11.004055 Z M 5.9188 -0.489683 C 7.098913 -0.490361 11.071136 -2.768285 11.070148 -5.406467 C 11.075219 -6.983176 9.917276 -8.088147 8.593704 -8.085234 C 7.377033 -8.087962 6.51795 -7.224815 5.911831 -6.504044 C 5.339899 -7.231037 4.483652 -8.088058 3.25802 -8.085948 C 1.936509 -8.089934 0.779748 -6.98504 0.781577 -5.40627 C 0.782565 -2.768088 4.761448 -0.489721 5.9188 -0.489683 Z M 5.9188 -0.489683 " stroke="#ff66c4" stroke-width="1.599808" stroke-opacity="1" stroke-miterlimit="4"/><path stroke-linecap="butt" transform="matrix(0.526013, -0.132593, 0.132593, 0.526013, 52.508777, 32.951813)" fill="none" stroke-linejoin="miter" d="M 0.202992 19.220546 C 0.200992 21.143414 2.398341 20.999245 3.236643 21.002625 L 8.390499 21.00219 C 9.230561 20.998588 11.437835 21.139115 11.432853 19.214487 C 11.437284 16.04464 9.612832 16.624407 9.617415 6.20668 C 9.616189 -2.125766 11.435766 -2.892416 11.434858 -6.011626 C 11.435099 -7.927511 9.230767 -7.785103 8.392465 -7.788483 L 3.23861 -7.788048 C 2.398547 -7.784446 0.198256 -7.923212 0.198016 -6.007327 C 0.198923 -2.888117 2.019011 -2.124853 2.020238 6.207593 C 2.024396 16.620098 0.202201 16.041956 0.202992 19.220546 Z M 0.202992 19.220546 " stroke="#ff66c4" stroke-width="1.599808" stroke-opacity="1" stroke-miterlimit="4"/><path stroke-linecap="butt" transform="matrix(0.532678, -0.10259, 0.10259, 0.532678, 59.092995, 31.246803)" fill="none" stroke-linejoin="miter" d="M 12.035283 16.220367 C 12.032926 16.879904 11.548435 17.263254 10.81138 17.282634 C 8.010864 17.278603 6.620871 14.062944 3.481472 14.066978 C 1.71473 14.064046 0.542209 15.202208 0.539539 17.005667 C 0.538335 20.40072 4.919865 21.2959 9.378336 21.296579 C 14.151752 21.299248 18.605299 19.421672 18.61132 14.326239 C 18.610636 6.904882 6.855309 8.124182 6.858398 5.785477 C 6.85667 5.147153 7.474357 5.024119 7.936168 5.025061 C 10.054573 5.029722 11.330541 7.504764 15.012255 7.50251 C 16.712636 7.507328 17.967493 6.62702 17.972311 4.926639 C 17.970267 1.472296 12.331366 0.70895 9.097321 0.709423 C 4.593701 0.714715 0.495849 2.76346 0.499308 7.010064 C 0.497007 15.398833 12.036067 13.36056 12.035283 16.220367 Z M 12.035283 16.220367 " stroke="#ff66c4" stroke-width="1.599808" stroke-opacity="1" stroke-miterlimit="4"/><path stroke-linecap="butt" transform="matrix(0.538793, -0.0630293, 0.0630293, 0.538793, 69.864424, 29.175323)" fill="none" stroke-linejoin="miter" d="M 7.975264 21.299065 C 10.889741 21.299257 11.638016 20.480542 14.11751 20.480599 C 15.850294 20.480304 16.652033 21.001844 18.152603 21.003384 C 18.675086 20.999255 20.86987 21.140006 20.869873 19.218757 C 20.871577 16.043456 19.049566 16.620563 19.049471 6.209552 C 19.047129 0.713778 20.865905 -2.872457 20.870578 -6.01116 C 20.869744 -7.925258 18.670938 -7.783729 17.830415 -7.787806 L 13.074198 -7.785949 C 12.232838 -7.782873 10.030901 -7.924461 10.031736 -6.010364 C 10.030328 -3.023528 11.754392 -0.284343 11.750071 2.107651 C 11.754739 2.811447 11.796896 2.946879 11.578986 2.950387 C 11.159142 2.944773 9.796355 0.711851 6.679108 0.709688 C 2.879521 0.714703 0.496105 4.169635 0.501009 11.006959 C 0.498221 17.662133 3.502163 21.297791 7.975264 21.299065 Z M 8.196129 11.044402 C 8.19373 8.028122 8.913884 6.024367 9.972318 6.024935 C 11.037903 6.02634 11.753113 8.031257 11.74836 11.046701 C 11.752431 14.048677 11.033951 16.038127 9.97468 16.044711 C 8.916247 16.044143 8.193048 14.045542 8.196129 11.044402 Z M 8.196129 11.044402 " stroke="#ff66c4" stroke-width="1.599808" stroke-opacity="1" stroke-miterlimit="4"/><path stroke-linecap="butt" transform="matrix(0.542009, -0.0222989, 0.0222989, 0.542009, 81.827183, 27.810342)" fill="none" stroke-linejoin="miter" d="M 9.971943 21.300091 C 15.97558 21.294844 19.445445 17.185475 19.44819 10.987579 C 19.449454 4.825656 15.971978 0.711538 9.975832 0.709887 C 3.97939 0.71543 0.495135 4.824207 0.501066 10.986426 C 0.498321 17.184322 3.975797 21.29844 9.971943 21.300091 Z M 8.196667 11.021959 C 8.19089 8.009201 8.914701 6.006609 9.974114 6.006952 C 11.033527 6.007296 11.751046 8.01153 11.749628 11.023993 C 11.748803 14.022066 11.032187 16.024954 9.972773 16.02461 C 8.91336 16.024267 8.195841 14.020032 8.196667 11.021959 Z M 8.196667 11.021959 " stroke="#ff66c4" stroke-width="1.599808" stroke-opacity="1" stroke-miterlimit="4"/><path stroke-linecap="butt" transform="matrix(0.542076, 0.0206059, -0.0206059, 0.542076, 93.277487, 27.33006)" fill="none" stroke-linejoin="miter" d="M 0.202957 3.829564 C 0.197026 5.948382 2.160569 6.608764 2.154726 11.004705 C 2.157781 14.686904 0.339271 17.0836 0.341083 19.216536 C 0.342158 21.140523 2.534658 20.999531 3.377923 21.003506 L 7.816764 21.000513 C 8.659755 20.997293 11.576391 21.138636 11.575589 19.221845 C 11.57687 16.9807 9.753241 14.124347 9.735542 11.00478 C 9.717172 9.384106 9.871834 7.007421 11.594068 7.006809 C 13.208367 7.0103 13.492368 9.363104 13.533146 11.004544 C 13.591367 13.863151 12.41784 16.545191 12.41858 19.218625 C 12.41246 21.142885 15.332819 21.00305 16.17581 20.999829 L 19.908653 21.002055 C 20.751644 20.998835 22.947616 21.138748 22.946814 19.221957 C 22.944728 17.081826 21.124213 14.686544 21.128354 11.004071 L 21.127654 7.004714 C 21.125693 3.351298 19.627428 0.713171 16.00999 0.713765 C 12.493291 0.710529 10.450621 3.086922 9.95357 3.091404 C 9.693978 3.08686 9.594963 2.946501 9.536114 2.725349 C 9.11752 1.191951 8.371608 0.715878 7.636552 0.714995 C 7.117641 0.713103 4.922428 1.351418 3.937901 1.612232 C 2.140176 2.091317 0.201083 2.453271 0.202957 3.829564 Z M 0.202957 3.829564 " stroke="#ff66c4" stroke-width="1.599808" stroke-opacity="1" stroke-miterlimit="4"/><path stroke-linecap="butt" transform="matrix(0.538793, 0.0630295, -0.0630295, 0.538793, 106.453264, 27.89357)" fill="none" stroke-linejoin="miter" d="M 0.497136 11.007129 C 0.496713 16.14743 4.281572 21.294417 11.293057 21.300694 C 16.947852 21.29893 19.493465 19.261137 19.490871 17.44169 C 19.492893 16.281454 18.732795 14.246122 16.913348 14.248716 C 15.230628 14.242565 14.428918 16.003851 11.579646 16.003667 C 10.753427 16.006071 9.497865 15.74695 9.494922 15.102044 C 9.49592 14.862677 9.672213 14.820304 10.013383 14.823893 C 10.614539 14.818818 11.692216 14.982748 13.090848 14.543633 C 16.028642 13.627211 19.191768 11.66218 19.191032 7.007765 C 19.192941 2.809791 15.394727 0.709367 11.291404 0.710885 C 3.896673 0.713191 0.497938 5.932035 0.497136 11.007129 Z M 8.216759 8.886066 C 8.89772 7.146155 9.997283 6.009775 10.997663 6.008748 C 11.998043 6.007721 12.217736 7.142021 11.530461 8.88992 C 10.854142 10.607538 9.733123 11.746428 8.732743 11.747455 C 7.732363 11.748483 7.533289 10.604521 8.216759 8.886066 Z M 8.216759 8.886066 " stroke="#ff66c4" stroke-width="1.599808" stroke-opacity="1" stroke-miterlimit="4"/><path stroke-linecap="butt" transform="matrix(0.532461, 0.103712, -0.103712, 0.532461, 117.620239, 29.201125)" fill="none" stroke-linejoin="miter" d="M 0.200853 19.214877 C 0.202456 21.143991 2.40484 21.001127 3.240887 20.99968 C 4.737841 21.001554 5.898481 20.482038 7.636941 20.48089 C 10.116811 20.482055 10.855537 21.299212 13.774635 21.295524 C 18.249984 21.296833 21.246649 17.66128 21.249024 11.006865 C 21.252322 4.168865 18.8703 0.71529 15.069994 0.714549 C 11.951798 0.712999 10.597524 2.950226 10.178123 2.943882 C 9.959198 2.949842 9.99803 2.810227 9.993091 2.106912 C 9.996641 -0.285388 11.730491 -3.022048 11.735617 -6.008889 C 11.7297 -7.92249 9.534383 -7.781002 8.696959 -7.786623 L 3.555012 -7.782809 C 2.718964 -7.781362 0.519433 -7.925166 0.518282 -6.010189 C 0.513795 -2.869412 2.341569 0.714128 2.340784 6.20911 C 2.021535 16.6227 0.198457 16.03876 0.200853 19.214877 Z M 9.994787 11.042098 C 9.994407 8.026986 10.712001 6.023814 11.776796 6.029165 C 12.833145 6.028825 13.553207 8.030749 13.553588 11.045862 C 13.551215 14.046838 12.832244 16.042942 11.775894 16.043282 C 10.712476 16.044999 9.992415 14.043074 9.994787 11.042098 Z M 9.994787 11.042098 " stroke="#ff66c4" stroke-width="1.599808" stroke-opacity="1" stroke-miterlimit="4"/><path stroke-linecap="butt" transform="matrix(0.522398, 0.146189, -0.146189, 0.522398, 129.830591, 31.601941)" fill="none" stroke-linejoin="miter" d="M -0.201874 25.374716 C -0.204224 28.171973 1.317385 30.296003 4.719028 30.293726 C 7.336274 30.294109 11.31116 28.920053 12.952195 22.359149 C 13.574971 19.881788 15.357911 15.96561 16.933847 12.645744 C 20.18671 5.805766 21.907942 4.688501 21.9085 2.766617 C 21.910319 1.704297 21.109937 1.008541 20.047617 1.006722 L 15.412517 1.010205 C 14.297775 1.008101 12.836281 1.289971 12.833837 2.831028 C 12.835099 3.690592 13.35171 4.548012 13.351547 5.669689 C 13.350215 7.188002 12.59331 8.865414 11.929837 10.823259 C 11.270818 8.869104 10.509411 7.190361 10.508801 5.665114 C 10.510906 4.550371 11.031929 3.686723 11.032608 2.834093 C 11.033112 1.286102 9.57364 1.014068 8.458898 1.011964 L 2.079986 1.009923 C 1.017666 1.008103 0.219576 1.710006 0.215816 2.765391 C 0.221228 5.590386 2.278612 6.502673 5.201729 12.646249 C 6.781133 15.965467 7.377551 19.24571 8.975724 21.295971 C 8.716501 22.400413 7.737313 22.936145 6.556279 22.937637 C 4.761985 22.938762 4.08094 21.760957 2.076956 21.760942 C 0.417185 21.761809 -0.20057 24.043349 -0.201874 25.374716 Z M -0.201874 25.374716 " stroke="#ff66c4" stroke-width="1.599808" stroke-opacity="1" stroke-miterlimit="4"/><path stroke-linecap="butt" transform="matrix(0.508596, 0.188681, -0.188681, 0.508596, 142.009491, 35.029617)" fill="none" stroke-linejoin="miter" d="M 0.200077 19.222282 C 0.198361 21.143032 2.403644 21.000788 3.239718 20.997837 L 7.534645 21.002025 C 8.370719 20.999074 11.296437 21.142554 11.295648 19.215053 C 11.292138 17.342325 9.476339 15.780944 9.479666 12.208299 C 9.478016 11.00308 10.193547 11.006446 10.51467 11.002522 C 11.797421 11.002831 12.752 13.244691 12.751921 15.418288 C 12.750744 16.947135 12.432572 17.787134 12.43488 19.283966 C 12.433262 20.459675 13.592754 20.99726 14.716195 21.002907 L 19.047383 21.001324 C 21.888489 20.999543 22.586698 20.41794 22.584825 18.798059 C 22.583892 14.282299 17.032814 8.407749 11.532668 8.405211 C 10.994958 8.405 10.376128 8.7037 10.377969 7.942652 C 10.376214 7.006288 11.71515 6.847505 12.69028 6.84673 C 15.009684 6.84648 16.932741 8.345029 19.728331 8.344773 C 22.348604 8.348113 22.014603 6.267732 22.007826 4.365494 C 22.011495 1.891027 21.750246 0.68995 18.546746 0.687924 C 12.570415 0.685392 10.353423 4.626123 9.715423 4.624716 C 9.378293 4.626898 9.517559 4.091365 9.516678 3.38509 C 9.515988 0.712548 11.173715 -2.851734 11.177265 -6.009717 C 11.17223 -7.927962 9.197036 -7.786593 8.354211 -7.781137 L 3.239217 -7.780632 C 2.400638 -7.784432 0.197202 -7.927051 0.202237 -6.008805 C 0.199666 -2.889588 2.020066 0.713086 2.021775 6.203976 C 2.022135 16.618536 0.202864 16.041541 0.200077 19.222282 Z M 0.200077 19.222282 " stroke="#ff66c4" stroke-width="1.599808" stroke-opacity="1" stroke-miterlimit="4"/><path stroke-linecap="butt" transform="matrix(0.491345, 0.229893, -0.229893, 0.491345, 154.204431, 39.591562)" fill="none" stroke-linejoin="miter" d="M -0.19698 25.37798 C -0.198968 28.17735 1.317898 30.297873 4.71977 30.296214 C 7.33556 30.296646 11.31463 28.911909 12.954205 22.357096 C 13.569465 19.882944 15.353056 15.963787 16.931042 12.641685 C 20.188621 5.80684 21.90889 4.691899 21.907403 2.768667 C 21.912435 1.708948 21.109122 1.01154 20.049402 1.006508 L 15.416855 1.011572 C 14.295803 1.011387 12.83571 1.289085 12.834207 2.832111 C 12.837673 3.689101 13.350116 4.546453 13.349931 5.667506 C 13.352317 7.184861 12.590101 8.869159 11.930385 10.823503 C 11.275893 8.863946 10.514232 7.185086 10.511846 5.667731 C 10.512031 4.546678 11.033637 3.690468 11.036693 2.830426 C 11.031674 1.290452 9.5732 1.010885 8.45867 1.007649 L 2.076898 1.012285 C 1.02023 1.013776 0.216133 1.708005 0.217623 2.764672 C 0.218268 5.586661 2.278583 6.50685 5.198495 12.645577 C 6.780938 15.959736 7.371935 19.244868 8.97748 21.30005 C 8.713652 22.401355 7.733215 22.939587 6.5543 22.934674 C 4.759837 22.939512 4.081766 21.76215 2.078053 21.761541 C 0.415832 21.760157 -0.200923 24.044205 -0.19698 25.37798 Z M -0.19698 25.37798 " stroke="#ff66c4" stroke-width="1.599808" stroke-opacity="1" stroke-miterlimit="4"/><g fill="#f8c9e6" fill-opacity="1"><g transform="translate(27.000199, 54.976224)"><g><path d="M -2.183594 -7.589844 C -0.230469 -3.371094 -0.953125 -2.582031 -0.21875 -0.988281 C 0.230469 -0.0234375 1.28125 -0.589844 1.691406 -0.78125 L 3.347656 -1.546875 C 3.757812 -1.738281 4.875 -2.171875 4.429688 -3.136719 C 3.703125 -4.699219 2.65625 -4.691406 0.761719 -8.714844 L 7.042969 -3.914062 C 7.550781 -3.433594 8.375 -3.875 8.730469 -4.039062 L 10.394531 -4.808594 C 10.808594 -5 11.921875 -5.429688 11.476562 -6.394531 C 10.738281 -7.988281 9.667969 -7.949219 7.714844 -12.171875 C 5.761719 -16.394531 6.484375 -17.179688 5.75 -18.777344 C 5.300781 -19.742188 4.25 -19.171875 3.839844 -18.980469 L 2.175781 -18.210938 C 1.761719 -18.019531 0.648438 -17.585938 1.09375 -16.621094 C 1.816406 -15.058594 2.867188 -15.066406 4.765625 -11.035156 L -1.542969 -15.867188 L -1.539062 -15.859375 C -2.050781 -16.316406 -2.855469 -15.882812 -3.207031 -15.71875 L -4.863281 -14.957031 C -5.273438 -14.765625 -6.390625 -14.332031 -5.945312 -13.367188 C -5.207031 -11.773438 -4.136719 -11.8125 -2.183594 -7.589844 Z M -2.183594 -7.589844 "/></g></g></g><g fill="#f8c9e6" fill-opacity="1"><g transform="translate(38.841926, 49.535044)"><g><path d="M -1.605469 -5.1875 C -0.460938 -2.046875 2.164062 -0.617188 4.425781 -1.441406 C 5.832031 -1.957031 5.804688 -2.628906 6.394531 -2.84375 C 6.945312 -3.042969 7.105469 -2.421875 7.941406 -2.726562 C 9.375 -3.25 10.289062 -4.289062 9.957031 -5.195312 C 9.625 -6.113281 8.679688 -6.296875 7.828125 -8.628906 C 7.035156 -10.800781 7.371094 -12.03125 7.019531 -12.988281 C 6.664062 -13.964844 5.71875 -13.804688 5.289062 -13.648438 C 4.8125 -13.476562 4.5 -13.1875 3.449219 -12.804688 C 2.941406 -12.617188 2.484375 -12.636719 1.175781 -12.148438 C -0.308594 -11.59375 -3.15625 -9.433594 -1.605469 -5.1875 Z M 2.238281 -9.488281 C 2.777344 -9.683594 3.515625 -8.800781 4.078125 -7.261719 C 4.636719 -5.734375 4.640625 -4.582031 4.101562 -4.382812 C 3.5625 -4.1875 2.824219 -5.070312 2.265625 -6.597656 C 1.703125 -8.136719 1.699219 -9.289062 2.238281 -9.488281 Z M 2.238281 -9.488281 "/></g></g></g><g fill="#f8c9e6" fill-opacity="1"><g transform="translate(49.252577, 45.803568)"><g><path d="M -0.429688 -5.53125 C 0.136719 -3.628906 -0.421875 -2.09375 -0.0898438 -0.980469 C 0.207031 0.015625 1.164062 -0.347656 1.601562 -0.476562 L 4.613281 -1.378906 C 5.050781 -1.507812 6.046875 -1.726562 5.75 -2.726562 C 5.480469 -3.628906 4.0625 -4.925781 3.527344 -6.714844 C 3.300781 -7.480469 2.886719 -8.820312 2.554688 -9.929688 C 2.058594 -11.59375 1.339844 -11.886719 0.820312 -11.730469 C 0.546875 -11.652344 -0.496094 -10.976562 -0.964844 -10.691406 C -1.824219 -10.160156 -2.777344 -9.671875 -2.5625 -8.957031 C -2.234375 -7.855469 -1.113281 -7.816406 -0.429688 -5.53125 Z M -0.261719 -12.089844 C 0.351562 -12.269531 2.066406 -14.074219 1.65625 -15.445312 C 1.410156 -16.265625 0.636719 -16.65625 -0.046875 -16.453125 C -0.683594 -16.261719 -0.996094 -15.683594 -1.195312 -15.214844 C -1.609375 -15.5 -2.1875 -15.8125 -2.824219 -15.625 C -3.507812 -15.417969 -3.941406 -14.667969 -3.695312 -13.847656 C -3.285156 -12.476562 -0.863281 -11.90625 -0.261719 -12.089844 Z M -0.261719 -12.089844 "/></g></g></g><g fill="#f8c9e6" fill-opacity="1"><g transform="translate(55.293229, 43.998088)"><g><path d="M -0.128906 -0.960938 C 0.125 0.046875 1.261719 -0.316406 1.703125 -0.429688 L 4.417969 -1.113281 C 4.859375 -1.222656 6.03125 -1.441406 5.777344 -2.453125 C 5.355469 -4.125 4.476562 -3.578125 3.097656 -9.054688 C 1.992188 -13.441406 2.847656 -14.082031 2.433594 -15.722656 C 2.179688 -16.730469 1.042969 -16.367188 0.597656 -16.253906 L -2.113281 -15.570312 C -2.554688 -15.460938 -3.730469 -15.242188 -3.476562 -14.230469 C -3.0625 -12.59375 -2.003906 -12.433594 -0.898438 -8.046875 C 0.480469 -2.570312 -0.550781 -2.632812 -0.128906 -0.960938 Z M -0.128906 -0.960938 "/></g></g></g><g fill="#f8c9e6" fill-opacity="1"><g transform="translate(61.247377, 42.433045)"><g><path d="M 5.921875 -3.78125 C 5.988281 -3.429688 5.769531 -3.175781 5.378906 -3.089844 C 3.886719 -2.804688 2.8125 -4.375 1.140625 -4.050781 C 0.203125 -3.871094 -0.308594 -3.144531 -0.121094 -2.183594 C 0.226562 -0.375 2.648438 -0.34375 5.023438 -0.800781 C 7.570312 -1.292969 9.75 -2.75 9.230469 -5.464844 C 8.46875 -9.417969 2.332031 -7.5625 2.089844 -8.808594 C 2.027344 -9.148438 2.34375 -9.273438 2.589844 -9.320312 C 3.71875 -9.539062 4.652344 -8.351562 6.613281 -8.726562 C 7.519531 -8.902344 8.097656 -9.5 7.925781 -10.40625 C 7.570312 -12.246094 4.488281 -12.074219 2.761719 -11.742188 C 0.367188 -11.28125 -1.605469 -9.761719 -1.167969 -7.503906 C -0.308594 -3.03125 5.625 -5.300781 5.921875 -3.78125 Z M 5.921875 -3.78125 "/></g></g></g><g fill="#f8c9e6" fill-opacity="1"><g transform="translate(71.188039, 40.489979)"><g><path d="M 4.316406 -0.339844 C 5.890625 -0.523438 6.234375 -1.011719 7.570312 -1.167969 C 8.507812 -1.277344 8.972656 -1.050781 9.78125 -1.144531 C 10.058594 -1.175781 11.253906 -1.238281 11.132812 -2.273438 C 10.933594 -3.988281 9.988281 -3.558594 9.332031 -9.171875 C 8.984375 -12.132812 9.738281 -14.175781 9.542969 -15.867188 C 9.421875 -16.898438 8.246094 -16.6875 7.792969 -16.632812 L 5.230469 -16.332031 C 4.777344 -16.28125 3.582031 -16.21875 3.703125 -15.183594 C 3.890625 -13.578125 4.992188 -12.210938 5.140625 -10.917969 C 5.1875 -10.542969 5.21875 -10.46875 5.097656 -10.457031 C 4.871094 -10.429688 4 -11.550781 2.320312 -11.351562 C 0.273438 -11.113281 -0.792969 -9.101562 -0.359375 -5.417969 C 0.0585938 -1.832031 1.902344 -0.0585938 4.316406 -0.339844 Z M 3.789062 -5.878906 C 3.597656 -7.507812 3.859375 -8.628906 4.429688 -8.695312 C 5 -8.761719 5.515625 -7.730469 5.707031 -6.105469 C 5.894531 -4.488281 5.632812 -3.367188 5.0625 -3.300781 C 4.492188 -3.234375 3.976562 -4.265625 3.789062 -5.878906 Z M 3.789062 -5.878906 "/></g></g></g><g fill="#f8c9e6" fill-opacity="1"><g transform="translate(82.29546, 39.192524)"><g><path d="M 5.414062 -0.0585938 C 8.664062 -0.195312 10.457031 -2.503906 10.320312 -5.863281 C 10.179688 -9.199219 8.203125 -11.351562 4.953125 -11.21875 C 1.703125 -11.085938 -0.0898438 -8.777344 0.046875 -5.4375 C 0.1875 -2.082031 2.164062 0.0742188 5.414062 -0.0585938 Z M 4.21875 -5.589844 C 4.152344 -7.226562 4.496094 -8.324219 5.070312 -8.347656 C 5.644531 -8.371094 6.082031 -7.304688 6.148438 -5.667969 C 6.214844 -4.042969 5.871094 -2.945312 5.296875 -2.921875 C 4.722656 -2.898438 4.285156 -3.964844 4.21875 -5.589844 Z M 4.21875 -5.589844 "/></g></g></g><g fill="#f8c9e6" fill-opacity="1"><g transform="translate(92.844764, 38.713651)"><g><path d="M 0.460938 -9.304688 C 0.417969 -8.15625 1.46875 -7.757812 1.375 -5.375 C 1.300781 -3.378906 0.265625 -2.117188 0.222656 -0.957031 C 0.179688 0.0820312 1.375 0.0507812 1.832031 0.0703125 L 4.238281 0.160156 C 4.691406 0.179688 6.269531 0.3125 6.3125 -0.726562 C 6.355469 -1.941406 5.429688 -3.527344 5.484375 -5.21875 C 5.503906 -6.09375 5.640625 -7.382812 6.574219 -7.347656 C 7.449219 -7.3125 7.554688 -6.027344 7.542969 -5.140625 C 7.515625 -3.589844 6.820312 -2.160156 6.765625 -0.707031 C 6.726562 0.332031 8.3125 0.316406 8.765625 0.332031 L 10.792969 0.410156 C 11.246094 0.425781 12.4375 0.546875 12.476562 -0.492188 C 12.519531 -1.652344 11.582031 -2.988281 11.660156 -4.984375 L 11.742188 -7.148438 C 11.816406 -9.132812 11.058594 -10.59375 9.097656 -10.667969 C 7.191406 -10.742188 6.035156 -9.492188 5.765625 -9.503906 C 5.625 -9.507812 5.574219 -9.585938 5.546875 -9.707031 C 5.347656 -10.550781 4.957031 -10.824219 4.558594 -10.839844 C 4.277344 -10.851562 3.070312 -10.550781 2.535156 -10.429688 C 1.550781 -10.207031 0.492188 -10.050781 0.460938 -9.304688 Z M 0.460938 -9.304688 "/></g></g></g><g fill="#f8c9e6" fill-opacity="1"><g transform="translate(105.129644, 39.208224)"><g><path d="M 0.898438 -5.355469 C 0.574219 -2.585938 2.285156 0.429688 6.066406 0.875 C 9.113281 1.230469 10.609375 0.292969 10.726562 -0.6875 C 10.796875 -1.3125 10.519531 -2.460938 9.539062 -2.574219 C 8.632812 -2.679688 8.089844 -1.78125 6.550781 -1.964844 C 6.109375 -2.015625 5.449219 -2.234375 5.488281 -2.578125 C 5.503906 -2.707031 5.601562 -2.71875 5.785156 -2.695312 C 6.109375 -2.660156 6.679688 -2.503906 7.460938 -2.652344 C 9.101562 -2.964844 10.929688 -3.820312 11.222656 -6.328125 C 11.484375 -8.589844 9.570312 -9.960938 7.363281 -10.21875 C 3.378906 -10.6875 1.21875 -8.089844 0.898438 -5.355469 Z M 5.191406 -6.007812 C 5.664062 -6.902344 6.332031 -7.449219 6.867188 -7.386719 C 7.40625 -7.320312 7.453125 -6.695312 6.976562 -5.800781 C 6.503906 -4.917969 5.828125 -4.375 5.289062 -4.4375 C 4.75 -4.5 4.714844 -5.125 5.191406 -6.007812 Z M 5.191406 -6.007812 "/></g></g></g><g fill="#f8c9e6" fill-opacity="1"><g transform="translate(115.44229, 40.382802)"><g><path d="M 0.289062 -0.925781 C 0.09375 0.09375 1.277344 0.25 1.722656 0.335938 C 2.523438 0.492188 3.195312 0.335938 4.121094 0.515625 C 5.441406 0.773438 5.75 1.285156 7.300781 1.589844 C 9.6875 2.050781 11.660156 0.425781 12.351562 -3.117188 C 13.058594 -6.757812 12.152344 -8.847656 10.128906 -9.242188 C 8.46875 -9.5625 7.511719 -8.511719 7.289062 -8.554688 C 7.171875 -8.578125 7.207031 -8.648438 7.28125 -9.023438 C 7.53125 -10.300781 8.738281 -11.578125 9.050781 -13.164062 C 9.246094 -14.183594 8.0625 -14.339844 7.617188 -14.425781 L 4.878906 -14.957031 C 4.433594 -15.046875 3.277344 -15.347656 3.078125 -14.324219 C 2.753906 -12.65625 3.351562 -10.5625 2.78125 -7.632812 C 1.527344 -2.121094 0.621094 -2.617188 0.289062 -0.925781 Z M 6.355469 -4.265625 C 6.667969 -5.871094 7.257812 -6.859375 7.820312 -6.75 C 8.386719 -6.640625 8.5625 -5.503906 8.25 -3.894531 C 7.9375 -2.296875 7.347656 -1.308594 6.785156 -1.417969 C 6.21875 -1.527344 6.042969 -2.667969 6.355469 -4.265625 Z M 6.355469 -4.265625 "/></g></g></g><g fill="#f8c9e6" fill-opacity="1"><g transform="translate(126.760619, 42.572295)"><g><path d="M -0.746094 2.257812 C -1.152344 3.71875 -0.667969 5.046875 1.105469 5.546875 C 2.472656 5.929688 4.753906 5.789062 6.566406 2.605469 C 7.253906 1.398438 8.757812 -0.386719 10.066406 -1.890625 C 12.769531 -4.984375 13.828125 -5.320312 14.109375 -6.320312 C 14.265625 -6.875 13.949219 -7.355469 13.394531 -7.511719 L 10.972656 -8.191406 C 10.390625 -8.351562 9.585938 -8.421875 9.359375 -7.617188 C 9.234375 -7.167969 9.378906 -6.640625 9.21875 -6.058594 C 8.996094 -5.265625 8.351562 -4.496094 7.722656 -3.570312 C 7.664062 -4.691406 7.511719 -5.679688 7.734375 -6.472656 C 7.898438 -7.058594 8.296875 -7.429688 8.421875 -7.878906 C 8.644531 -8.683594 7.925781 -9.042969 7.339844 -9.207031 L 4.007812 -10.140625 C 3.453125 -10.292969 2.933594 -10.046875 2.78125 -9.492188 C 2.367188 -8.019531 3.308594 -7.238281 3.9375 -3.605469 C 4.277344 -1.640625 4.109375 0.160156 4.644531 1.46875 C 4.347656 2.003906 3.757812 2.144531 3.140625 1.972656 C 2.203125 1.707031 2.019531 0.992188 0.976562 0.699219 C 0.109375 0.457031 -0.546875 1.558594 -0.746094 2.257812 Z M -0.746094 2.257812 "/></g></g></g><g fill="#f8c9e6" fill-opacity="1"><g transform="translate(138.047196, 45.71014)"><g><path d="M 0.4375 -0.867188 C 0.0742188 0.109375 1.21875 0.453125 1.648438 0.609375 L 3.832031 1.421875 C 4.261719 1.582031 5.71875 2.203125 6.078125 1.226562 C 6.433594 0.269531 5.804688 -0.867188 6.480469 -2.6875 C 6.703125 -3.296875 7.070312 -3.160156 7.234375 -3.097656 C 7.882812 -2.859375 7.949219 -1.539062 7.539062 -0.429688 C 7.253906 0.34375 6.929688 0.710938 6.648438 1.472656 C 6.425781 2.070312 6.914062 2.566406 7.484375 2.777344 L 9.6875 3.59375 C 11.132812 4.128906 11.597656 3.96875 11.902344 3.144531 C 12.753906 0.847656 11.039062 -3.191406 8.242188 -4.230469 C 7.96875 -4.332031 7.597656 -4.296875 7.738281 -4.679688 C 7.917969 -5.160156 8.628906 -4.988281 9.125 -4.804688 C 10.304688 -4.367188 11 -3.242188 12.421875 -2.714844 C 13.753906 -2.21875 13.972656 -3.339844 14.332031 -4.304688 C 14.800781 -5.566406 14.894531 -6.226562 13.265625 -6.828125 C 10.226562 -7.957031 8.355469 -6.371094 8.03125 -6.492188 C 7.855469 -6.558594 8.03125 -6.804688 8.164062 -7.160156 C 8.667969 -8.523438 10.183594 -10.019531 10.777344 -11.628906 C 11.140625 -12.601562 10.109375 -12.90625 9.679688 -13.0625 L 7.078125 -14.027344 C 6.652344 -14.1875 5.558594 -14.671875 5.199219 -13.699219 C 4.609375 -12.113281 4.855469 -9.9375 3.816406 -7.140625 C 1.851562 -1.84375 1.035156 -2.484375 0.4375 -0.867188 Z M 0.4375 -0.867188 "/></g></g></g><g fill="#f8c9e6" fill-opacity="1"><g transform="translate(149.376688, 49.90981)"><g><path d="M -1.105469 2.105469 C -1.746094 3.480469 -1.488281 4.871094 0.179688 5.652344 C 1.46875 6.253906 3.738281 6.492188 6.050781 3.644531 C 6.925781 2.570312 8.703125 1.054688 10.238281 -0.214844 C 13.414062 -2.824219 14.515625 -2.976562 14.957031 -3.921875 C 15.199219 -4.441406 14.96875 -4.96875 14.445312 -5.210938 L 12.167969 -6.277344 C 11.617188 -6.535156 10.835938 -6.734375 10.484375 -5.976562 C 10.285156 -5.554688 10.34375 -5.011719 10.085938 -4.464844 C 9.738281 -3.71875 8.976562 -3.066406 8.203125 -2.253906 C 8.328125 -3.371094 8.34375 -4.371094 8.691406 -5.117188 C 8.949219 -5.667969 9.402344 -5.96875 9.597656 -6.390625 C 9.953125 -7.148438 9.300781 -7.621094 8.75 -7.878906 L 5.617188 -9.34375 C 5.097656 -9.585938 4.542969 -9.425781 4.300781 -8.90625 C 3.652344 -7.523438 4.453125 -6.597656 4.476562 -2.910156 C 4.488281 -0.917969 4.027344 0.832031 4.339844 2.210938 C 3.960938 2.691406 3.355469 2.730469 2.777344 2.460938 C 1.890625 2.046875 1.828125 1.3125 0.847656 0.851562 C 0.03125 0.46875 -0.796875 1.445312 -1.105469 2.105469 Z M -1.105469 2.105469 "/></g></g></g><path stroke-linecap="butt" transform="matrix(0.256825, 0, 0, 0.256825, 60.097229, 33.278744)" fill="none" stroke-linejoin="miter" d="M 7.165455 67.176024 C 11.637122 67.176024 13.112468 64.757673 13.112468 62.734776 C 13.112468 60.970445 11.576283 59.768875 10.222615 59.768875 C 9.35566 59.768875 8.625592 60.301216 8.625592 61.578835 C 8.625592 62.962922 8.382235 63.525683 7.165455 63.525683 C 5.157768 63.525683 4.579797 61.213801 4.579797 58.354368 C 4.579797 55.510144 5.157768 53.183052 7.165455 53.183052 C 8.382235 53.183052 8.625592 53.745813 8.625592 55.14511 C 8.625592 56.407519 9.35566 56.95507 10.222615 56.95507 C 11.576283 56.95507 13.112468 55.73829 13.112468 53.973959 C 13.112468 51.966272 11.637122 49.532711 7.165455 49.532711 C 1.537847 49.532711 -0.120016 53.502457 -0.120016 58.354368 C -0.120016 63.221488 1.537847 67.176024 7.165455 67.176024 Z M 13.59918 63.236698 C 13.59918 65.533371 14.618234 67.176024 17.675394 67.176024 C 18.664028 67.176024 20.002486 66.628473 20.291471 66.080922 C 20.550037 66.734941 21.051959 66.993507 21.934125 66.993507 L 24.139539 66.993507 C 24.641461 66.993507 25.782192 67.084765 25.782192 65.928824 C 25.782192 64.803303 24.68709 63.616942 24.68709 61.472367 C 24.68709 58.79545 25.751773 57.198426 25.751773 56.072905 C 25.751773 54.916964 24.428524 54.993012 23.926602 54.993012 L 21.340944 54.993012 C 20.839023 54.993012 19.77434 54.916964 19.77434 56.072905 C 19.77434 57.198426 20.169793 58.126221 20.169793 60.286006 C 20.169793 61.89824 19.74392 64.012395 18.664028 64.012395 C 18.192526 64.012395 17.994799 63.449635 17.994799 62.886874 C 17.994799 61.822191 18.876965 60.529362 18.876965 58.080592 C 18.876965 56.863812 18.587979 54.993012 17.234311 54.993012 L 14.815961 54.993012 C 14.466136 54.993012 13.61439 55.251578 13.61439 56.118534 C 13.61439 57.456992 14.101102 58.141431 14.101102 59.555938 C 14.101102 61.000864 13.59918 61.502786 13.59918 63.236698 Z M 33.113293 64.134073 C 33.113293 64.529527 32.824307 64.757673 32.383225 64.772883 C 30.710152 64.772883 29.873615 62.841244 27.987606 62.841244 C 26.922923 62.841244 26.223275 63.525683 26.223275 64.605576 C 26.223275 66.643683 28.854562 67.176024 31.531478 67.176024 C 34.390912 67.176024 37.067828 66.050502 37.067828 62.993342 C 37.067828 58.536885 30.010503 59.266953 30.010503 57.867655 C 30.010503 57.487412 30.390747 57.411363 30.664523 57.411363 C 31.926932 57.411363 32.702629 58.901919 34.908043 58.901919 C 35.927097 58.901919 36.687584 58.369577 36.687584 57.350524 C 36.687584 55.281998 33.29581 54.825705 31.364171 54.825705 C 28.656835 54.825705 26.192855 56.057695 26.192855 58.597724 C 26.192855 63.632152 33.113293 62.415371 33.113293 64.134073 Z M 41.478656 67.176024 C 42.756276 67.176024 44.32288 66.582844 44.32288 65.518161 C 44.32288 64.559946 42.634598 64.696834 42.634598 61.000864 L 42.634598 56.331471 L 43.12131 56.331471 C 43.516763 56.331471 43.775329 56.072905 43.775329 55.677451 L 43.775329 55.647032 C 43.775329 55.266788 43.516763 54.993012 43.12131 54.993012 L 42.634598 54.993012 L 42.634598 51.859803 C 42.634598 51.418721 42.543339 50.84075 42.087046 50.84075 C 41.661173 50.84075 40.64212 51.966272 39.562228 52.970115 C 38.345447 54.095637 37.493701 54.932173 37.493701 55.540563 C 37.493701 56.027275 37.752267 56.331471 38.421496 56.331471 C 38.77132 56.331471 39.090725 56.209792 39.303662 56.209792 C 39.516598 56.209792 39.638276 56.316261 39.638276 56.742134 C 39.638276 58.050173 37.493701 60.286006 37.493701 63.13023 C 37.493701 65.715888 39.258033 67.176024 41.478656 67.176024 Z M 50.421991 67.176024 C 54.026702 67.176024 56.110438 64.712044 56.110438 60.985655 C 56.110438 57.289685 54.026702 54.825705 50.421991 54.825705 C 46.817279 54.825705 44.733543 57.289685 44.733543 60.985655 C 44.733543 64.712044 46.817279 67.176024 50.421991 67.176024 Z M 49.357308 61.016074 C 49.357308 59.206114 49.783181 58.004543 50.421991 58.004543 C 51.0608 58.004543 51.486673 59.206114 51.486673 61.016074 C 51.486673 62.810825 51.0608 64.012395 50.421991 64.012395 C 49.783181 64.012395 49.357308 62.810825 49.357308 61.016074 Z M 56.536311 56.696505 C 56.536311 57.958914 57.707462 58.354368 57.707462 61.000864 C 57.707462 63.206279 56.61236 64.651205 56.61236 65.928824 C 56.61236 67.084765 57.935608 66.993507 58.43753 66.993507 L 61.5099 66.993507 C 62.209549 66.993507 63.36549 66.871829 63.36549 65.928824 C 63.36549 64.499107 62.239968 62.871664 62.255178 61.000864 C 62.270388 60.02744 62.407275 58.597724 63.3807 58.597724 C 64.338914 58.597724 64.506221 60.012231 64.536641 61.000864 C 64.56706 62.719566 63.867412 64.3318 63.867412 65.928824 C 63.867412 66.871829 65.023353 66.993507 65.707792 66.993507 L 68.369498 66.993507 C 69.145196 66.993507 70.194669 66.993507 70.194669 65.928824 C 70.194669 64.742464 69.069147 63.038971 69.099566 61.000864 C 69.114776 60.012231 69.236454 58.597724 70.194669 58.597724 C 71.168093 58.597724 71.3354 60.012231 71.36582 61.000864 C 71.396239 62.719566 70.69659 64.3318 70.69659 65.928824 C 70.69659 66.871829 71.837322 66.993507 72.53697 66.993507 L 75.198677 66.993507 C 75.700599 66.993507 77.023847 67.084765 77.023847 65.928824 C 77.023847 64.651205 75.928745 63.206279 75.928745 61.000864 L 75.928745 58.597724 C 75.928745 56.407519 75.03137 54.825705 72.856375 54.825705 C 70.970366 54.825705 69.145196 56.133744 68.780162 56.635666 C 68.354289 55.510144 67.456913 54.825705 66.027196 54.825705 C 63.913041 54.825705 62.681051 56.255422 62.392066 56.255422 C 62.239968 56.255422 62.179129 56.164163 62.1335 56.027275 C 61.890144 55.11469 61.433851 54.825705 60.992768 54.825705 C 60.688573 54.825705 59.365325 55.205949 58.772145 55.358046 C 57.692252 55.647032 56.536311 55.859968 56.536311 56.696505 Z M 81.936597 65.913614 C 81.936597 67.084765 83.259846 66.993507 83.761768 66.993507 L 86.849347 66.993507 C 87.366479 66.993507 88.674518 67.084765 88.674518 65.913614 C 88.674518 64.36222 87.701093 62.962922 87.701093 61.000864 C 87.701093 60.787928 87.807562 60.559782 88.111757 60.559782 C 90.332381 60.559782 95.579745 60.164328 95.579745 54.962593 C 95.579745 51.646867 93.283073 49.715228 89.14602 49.715228 L 83.761768 49.715228 C 83.259846 49.715228 81.936597 49.63918 81.936597 50.81033 C 81.936597 52.757179 83.0317 53.213471 83.0317 58.354368 C 83.0317 63.510474 81.936597 63.966766 81.936597 65.913614 Z M 88.720147 53.183052 C 90.530107 53.243891 90.879932 54.202105 90.879932 54.764866 C 90.879932 55.327627 90.530107 56.36189 88.720147 56.331471 C 88.187806 56.316261 87.716303 56.194583 87.716303 55.707871 L 87.716303 53.806652 C 87.716303 53.31994 88.187806 53.167842 88.720147 53.183052 Z M 95.579745 56.696505 C 95.579745 57.913285 96.750896 58.552094 96.750896 61.715723 C 96.750896 63.875508 95.671004 64.803303 95.671004 65.928824 C 95.671004 67.084765 96.811735 66.993507 97.313657 66.993507 L 100.79669 66.993507 C 101.298612 66.993507 102.424134 67.084765 102.424134 65.928824 C 102.424134 64.803303 101.329031 63.875508 101.329031 61.715723 C 101.344241 60.65104 101.329031 58.597724 102.561021 58.597724 C 103.85385 58.597724 102.743538 61.000864 104.933743 61.000864 C 106.637235 61.000864 107.701918 60.286006 107.701918 57.989334 C 107.701918 56.012066 106.272201 54.825705 104.690387 54.825705 C 103.397558 54.825705 102.135148 55.479724 101.222563 56.148953 C 101.009627 55.1299 100.492495 54.825705 100.051412 54.825705 C 99.732007 54.825705 98.408759 55.205949 97.830788 55.358046 C 96.750896 55.647032 95.579745 55.859968 95.579745 56.696505 Z M 108.112581 61.000864 C 108.112581 64.088444 110.394044 67.176024 114.607145 67.176024 C 117.99892 67.176024 119.519895 65.959244 119.519895 64.864142 C 119.519895 64.164493 119.063603 62.947713 117.9685 62.947713 C 116.964657 62.947713 116.477945 63.997186 114.774452 63.997186 C 114.272531 63.997186 113.527253 63.845088 113.527253 63.464844 C 113.527253 63.312747 113.633721 63.297537 113.831448 63.297537 C 114.196482 63.297537 114.835291 63.388796 115.687038 63.13023 C 117.451369 62.567469 119.337378 61.396318 119.337378 58.597724 C 119.337378 56.088114 117.055915 54.825705 114.607145 54.825705 C 110.165898 54.825705 108.112581 57.958914 108.112581 61.000864 Z M 112.751555 59.723245 C 113.162219 58.688982 113.816238 58.004543 114.424628 58.004543 C 115.017808 58.004543 115.154696 58.688982 114.744033 59.723245 C 114.33337 60.757508 113.664141 61.441947 113.07096 61.441947 C 112.46257 61.441947 112.340892 60.757508 112.751555 59.723245 Z M 126.805366 64.134073 C 126.805366 64.529527 126.516381 64.757673 126.075298 64.772883 C 124.387016 64.772883 123.550479 62.841244 121.66447 62.841244 C 120.614997 62.841244 119.900139 63.525683 119.900139 64.605576 C 119.900139 66.643683 122.531426 67.176024 125.208342 67.176024 C 128.082986 67.176024 130.744692 66.050502 130.744692 62.993342 C 130.744692 58.536885 123.702577 59.266953 123.702577 57.867655 C 123.702577 57.487412 124.067611 57.411363 124.341387 57.411363 C 125.619006 57.411363 126.379493 58.901919 128.600117 58.901919 C 129.619171 58.901919 130.364448 58.369577 130.364448 57.350524 C 130.364448 55.281998 126.987883 54.825705 125.041035 54.825705 C 122.333699 54.825705 119.884929 56.057695 119.884929 58.597724 C 119.884929 63.632152 126.805366 62.415371 126.805366 64.134073 Z M 138.27352 64.134073 C 138.27352 64.529527 137.984534 64.757673 137.543452 64.772883 C 135.870379 64.772883 135.018633 62.841244 133.147833 62.841244 C 132.08315 62.841244 131.383502 63.525683 131.383502 64.605576 C 131.383502 66.643683 133.999579 67.176024 136.676496 67.176024 C 139.551139 67.176024 142.228055 66.050502 142.228055 62.993342 C 142.228055 58.536885 135.17073 59.266953 135.17073 57.867655 C 135.17073 57.487412 135.535764 57.411363 135.80954 57.411363 C 137.087159 57.411363 137.862856 58.901919 140.06827 58.901919 C 141.087324 58.901919 141.832602 58.369577 141.832602 57.350524 C 141.832602 55.281998 138.456037 54.825705 136.509188 54.825705 C 133.817062 54.825705 131.353082 56.057695 131.353082 58.597724 C 131.353082 63.632152 138.27352 62.415371 138.27352 64.134073 Z M 146.958288 58.354368 C 146.958288 63.221488 148.372795 67.176024 154.000403 67.176024 C 159.628012 67.176024 161.027309 63.221488 161.027309 58.354368 C 161.027309 53.502457 159.628012 49.532711 154.000403 49.532711 C 148.372795 49.532711 146.958288 53.502457 146.958288 58.354368 Z M 151.627682 58.354368 C 151.627682 55.510144 151.992716 53.183052 154.000403 53.183052 C 155.992881 53.183052 156.357915 55.510144 156.357915 58.354368 C 156.357915 61.198591 155.992881 63.525683 154.000403 63.525683 C 151.992716 63.525683 151.627682 61.198591 151.627682 58.354368 Z M 161.027309 56.696505 C 161.027309 57.958914 162.19846 58.354368 162.19846 61.000864 C 162.19846 63.206279 161.118568 64.651205 161.118568 65.928824 C 161.118568 67.084765 162.426606 66.993507 162.943738 66.993507 L 165.605444 66.993507 C 166.107366 66.993507 167.856488 67.084765 167.856488 65.928824 C 167.856488 64.590366 166.761386 62.871664 166.761386 61.000864 C 166.746176 60.02744 166.837434 58.597724 167.871698 58.597724 C 168.845122 58.597724 169.012429 60.012231 169.027639 61.000864 C 169.073268 62.719566 168.35841 64.3318 168.35841 65.928824 C 168.35841 67.084765 170.107531 66.993507 170.624663 66.993507 L 172.860496 66.993507 C 173.362418 66.993507 174.685667 67.084765 174.685667 65.928824 C 174.685667 64.651205 173.590564 63.206279 173.590564 61.000864 L 173.590564 58.597724 C 173.590564 56.407519 172.693189 54.825705 170.518194 54.825705 C 168.404039 54.825705 167.187259 56.255422 166.883064 56.255422 C 166.730966 56.255422 166.670127 56.164163 166.639708 56.027275 C 166.381142 55.11469 165.940059 54.825705 165.498976 54.825705 C 165.179571 54.825705 163.856323 55.205949 163.278352 55.358046 C 162.19846 55.647032 161.027309 55.859968 161.027309 56.696505 Z M 180.693519 58.354368 C 180.693519 63.510474 179.598417 63.966766 179.598417 65.913614 C 179.598417 67.084765 180.921665 66.993507 181.423587 66.993507 L 183.446484 66.993507 C 183.948406 66.993507 185.271654 67.084765 185.271654 65.913614 C 185.271654 63.997186 184.206971 63.525683 184.176552 58.597724 L 188.252766 66.339487 C 188.541751 67.054346 189.576014 66.993507 190.001887 66.993507 L 192.039994 66.993507 C 192.541916 66.993507 193.865164 67.084765 193.865164 65.913614 C 193.865164 63.966766 192.770062 63.510474 192.770062 58.354368 C 192.770062 53.213471 193.865164 52.757179 193.865164 50.81033 C 193.865164 49.63918 192.541916 49.715228 192.039994 49.715228 L 190.001887 49.715228 C 189.499965 49.715228 188.191927 49.63918 188.191927 50.81033 C 188.191927 52.726759 189.241399 53.198262 189.271819 58.126221 L 185.180396 50.338828 L 185.180396 50.354038 C 184.89141 49.654389 183.872357 49.715228 183.446484 49.715228 L 181.423587 49.715228 C 180.921665 49.715228 179.598417 49.63918 179.598417 50.81033 C 179.598417 52.757179 180.693519 53.213471 180.693519 58.354368 Z M 194.397505 61.000864 C 194.397505 64.696834 196.58771 67.176024 199.249416 67.176024 C 200.907279 67.176024 201.135426 66.476375 201.835074 66.476375 C 202.473884 66.476375 202.397835 67.176024 203.386469 67.176024 C 205.074752 67.176024 206.428419 66.445956 206.428419 65.381273 C 206.428419 64.301381 205.515834 63.75383 205.515834 61.000864 C 205.515834 58.445626 206.337161 57.289685 206.337161 56.164163 C 206.337161 55.008222 205.287688 54.825705 204.785766 54.825705 C 204.223005 54.825705 203.781923 54.993012 202.549933 54.993012 C 201.956752 54.993012 201.48525 54.810495 199.933855 54.825705 C 198.184734 54.825705 194.397505 55.996856 194.397505 61.000864 Z M 200.025114 57.989334 C 200.663923 57.989334 201.105006 59.190904 201.105006 61.000864 C 201.105006 62.795615 200.663923 63.997186 200.025114 63.997186 C 199.386304 63.997186 198.960431 62.795615 198.960431 61.000864 C 198.960431 59.190904 199.386304 57.989334 200.025114 57.989334 Z M 207.827717 61.000864 C 207.827717 63.191069 206.747824 64.651205 206.747824 65.928824 C 206.747824 67.084765 207.873346 66.993507 208.375268 66.993507 L 211.858301 66.993507 C 212.360223 66.993507 213.500954 67.084765 213.500954 65.928824 C 213.500954 64.894561 212.405852 63.069391 212.405852 61.000864 C 212.405852 60.118699 212.390642 58.567304 212.390642 57.274475 C 212.390642 55.358046 211.721413 54.825705 211.113023 54.825705 C 210.808828 54.825705 209.48558 55.205949 208.892399 55.358046 C 207.812507 55.647032 206.656566 55.859968 206.656566 56.696505 C 206.656566 57.958914 207.827717 58.354368 207.827717 61.000864 Z M 210.07876 54.095637 C 210.793618 54.095637 213.181549 52.726759 213.181549 51.144945 C 213.181549 50.20194 212.481901 49.532711 211.690994 49.532711 C 210.960926 49.532711 210.443794 50.049843 210.07876 50.490926 C 209.744145 50.049843 209.227014 49.532711 208.496946 49.532711 C 207.690829 49.532711 207.00639 50.20194 207.00639 51.144945 C 207.00639 52.726759 209.394321 54.095637 210.07876 54.095637 Z M 213.729101 65.928824 C 213.729101 67.084765 215.052349 66.993507 215.554271 66.993507 L 218.65706 66.993507 C 219.158982 66.993507 220.482231 67.084765 220.482231 65.928824 C 220.482231 64.027605 219.387128 64.377429 219.387128 58.126221 C 219.387128 53.122213 220.482231 52.66592 220.482231 50.779911 C 220.482231 49.63918 219.158982 49.715228 218.65706 49.715228 L 215.554271 49.715228 C 215.052349 49.715228 213.729101 49.63918 213.729101 50.779911 C 213.729101 52.66592 214.824203 53.122213 214.824203 58.126221 C 214.824203 64.377429 213.729101 64.027605 213.729101 65.928824 Z M 227.828541 64.134073 C 227.828541 64.529527 227.539556 64.757673 227.083263 64.772883 C 225.41019 64.772883 224.573654 62.841244 222.687645 62.841244 C 221.622962 62.841244 220.923313 63.525683 220.923313 64.605576 C 220.923313 66.643683 223.554601 67.176024 226.231517 67.176024 C 229.09095 67.176024 231.767867 66.050502 231.767867 62.993342 C 231.767867 58.536885 224.710542 59.266953 224.710542 57.867655 C 224.710542 57.487412 225.090785 57.411363 225.364561 57.411363 C 226.62697 57.411363 227.402668 58.901919 229.608082 58.901919 C 230.627135 58.901919 231.387623 58.369577 231.387623 57.350524 C 231.387623 55.281998 227.995848 54.825705 226.06421 54.825705 C 223.356874 54.825705 220.892894 56.057695 220.892894 58.597724 C 220.892894 63.632152 227.828541 62.415371 227.828541 64.134073 Z M 227.828541 64.134073 " stroke="#ff66c4" stroke-width="3.21736" stroke-opacity="1" stroke-miterlimit="4"/><g fill="#f8c9e6" fill-opacity="1"><g transform="translate(60.097229, 50.486043)"><g><path d="M 1.839844 0.046875 C 2.988281 0.046875 3.367188 -0.578125 3.367188 -1.09375 C 3.367188 -1.546875 2.972656 -1.859375 2.625 -1.859375 C 2.402344 -1.859375 2.214844 -1.71875 2.214844 -1.394531 C 2.214844 -1.035156 2.152344 -0.890625 1.839844 -0.890625 C 1.324219 -0.890625 1.175781 -1.484375 1.175781 -2.21875 C 1.175781 -2.953125 1.324219 -3.546875 1.839844 -3.546875 C 2.152344 -3.546875 2.214844 -3.402344 2.214844 -3.042969 C 2.214844 -2.71875 2.402344 -2.578125 2.625 -2.578125 C 2.972656 -2.578125 3.367188 -2.890625 3.367188 -3.34375 C 3.367188 -3.863281 2.988281 -4.484375 1.839844 -4.484375 C 0.394531 -4.484375 -0.03125 -3.46875 -0.03125 -2.21875 C -0.03125 -0.972656 0.394531 0.046875 1.839844 0.046875 Z M 1.839844 0.046875 "/></g></g></g><g fill="#f8c9e6" fill-opacity="1"><g transform="translate(63.558231, 50.486043)"><g><path d="M 0.03125 -0.96875 C 0.03125 -0.375 0.292969 0.046875 1.078125 0.046875 C 1.332031 0.046875 1.675781 -0.09375 1.75 -0.238281 C 1.816406 -0.0664062 1.945312 0 2.171875 0 L 2.738281 0 C 2.871094 0 3.160156 0.0234375 3.160156 -0.273438 C 3.160156 -0.5625 2.878906 -0.867188 2.878906 -1.421875 C 2.878906 -2.109375 3.152344 -2.519531 3.152344 -2.808594 C 3.152344 -3.101562 2.8125 -3.082031 2.683594 -3.082031 L 2.019531 -3.082031 C 1.890625 -3.082031 1.617188 -3.101562 1.617188 -2.808594 C 1.617188 -2.519531 1.71875 -2.277344 1.71875 -1.726562 C 1.71875 -1.308594 1.613281 -0.765625 1.332031 -0.765625 C 1.210938 -0.765625 1.160156 -0.914062 1.160156 -1.058594 C 1.160156 -1.328125 1.386719 -1.660156 1.386719 -2.289062 C 1.386719 -2.605469 1.3125 -3.082031 0.964844 -3.082031 L 0.34375 -3.082031 C 0.253906 -3.082031 0.0351562 -3.015625 0.0351562 -2.796875 C 0.0351562 -2.449219 0.160156 -2.273438 0.160156 -1.910156 C 0.160156 -1.539062 0.03125 -1.410156 0.03125 -0.96875 Z M 0.03125 -0.96875 "/></g></g></g><g fill="#f8c9e6" fill-opacity="1"><g transform="translate(66.748025, 50.486043)"><g><path d="M 1.855469 -0.738281 C 1.855469 -0.636719 1.78125 -0.578125 1.667969 -0.574219 C 1.234375 -0.574219 1.019531 -1.070312 0.535156 -1.070312 C 0.265625 -1.070312 0.0820312 -0.894531 0.0820312 -0.617188 C 0.0820312 -0.09375 0.757812 0.046875 1.445312 0.046875 C 2.183594 0.046875 2.871094 -0.242188 2.871094 -1.03125 C 2.871094 -2.171875 1.058594 -1.984375 1.058594 -2.34375 C 1.058594 -2.445312 1.152344 -2.460938 1.222656 -2.460938 C 1.550781 -2.460938 1.746094 -2.082031 2.316406 -2.082031 C 2.578125 -2.082031 2.769531 -2.214844 2.769531 -2.476562 C 2.769531 -3.011719 1.902344 -3.128906 1.402344 -3.128906 C 0.707031 -3.128906 0.078125 -2.8125 0.078125 -2.15625 C 0.078125 -0.863281 1.855469 -1.175781 1.855469 -0.738281 Z M 1.855469 -0.738281 "/></g></g></g><g fill="#f8c9e6" fill-opacity="1"><g transform="translate(69.694345, 50.486043)"><g><path d="M 1.058594 0.046875 C 1.382812 0.046875 1.785156 -0.109375 1.785156 -0.382812 C 1.785156 -0.625 1.351562 -0.589844 1.351562 -1.539062 L 1.351562 -2.738281 L 1.480469 -2.738281 C 1.578125 -2.738281 1.644531 -2.808594 1.644531 -2.90625 L 1.644531 -2.914062 C 1.644531 -3.015625 1.578125 -3.082031 1.480469 -3.082031 L 1.351562 -3.082031 L 1.351562 -3.890625 C 1.351562 -4 1.332031 -4.152344 1.210938 -4.152344 C 1.101562 -4.152344 0.839844 -3.863281 0.5625 -3.601562 C 0.253906 -3.3125 0.0351562 -3.101562 0.0351562 -2.941406 C 0.0351562 -2.816406 0.0976562 -2.738281 0.269531 -2.738281 C 0.359375 -2.738281 0.441406 -2.769531 0.496094 -2.769531 C 0.550781 -2.769531 0.582031 -2.742188 0.582031 -2.636719 C 0.582031 -2.300781 0.03125 -1.726562 0.03125 -0.992188 C 0.03125 -0.328125 0.484375 0.046875 1.058594 0.046875 Z M 1.058594 0.046875 "/></g></g></g><g fill="#f8c9e6" fill-opacity="1"><g transform="translate(71.5096, 50.486043)"><g><path d="M 1.539062 0.046875 C 2.460938 0.046875 3 -0.589844 3 -1.542969 C 3 -2.492188 2.460938 -3.128906 1.539062 -3.128906 C 0.613281 -3.128906 0.078125 -2.492188 0.078125 -1.542969 C 0.078125 -0.589844 0.613281 0.046875 1.539062 0.046875 Z M 1.261719 -1.539062 C 1.261719 -2.003906 1.375 -2.3125 1.539062 -2.3125 C 1.703125 -2.3125 1.8125 -2.003906 1.8125 -1.539062 C 1.8125 -1.074219 1.703125 -0.765625 1.539062 -0.765625 C 1.375 -0.765625 1.261719 -1.074219 1.261719 -1.539062 Z M 1.261719 -1.539062 "/></g></g></g><g fill="#f8c9e6" fill-opacity="1"><g transform="translate(74.585364, 50.486043)"><g><path d="M 0.03125 -2.648438 C 0.03125 -2.320312 0.332031 -2.21875 0.332031 -1.539062 C 0.332031 -0.972656 0.0507812 -0.605469 0.0507812 -0.273438 C 0.0507812 0.0234375 0.390625 0 0.519531 0 L 1.308594 0 C 1.488281 -0.00390625 1.785156 -0.0351562 1.785156 -0.273438 C 1.785156 -0.644531 1.496094 -1.058594 1.5 -1.539062 C 1.503906 -1.789062 1.539062 -2.15625 1.789062 -2.15625 C 2.039062 -2.15625 2.082031 -1.792969 2.085938 -1.539062 C 2.09375 -1.101562 1.914062 -0.6875 1.914062 -0.273438 C 1.914062 -0.0351562 2.210938 -0.00390625 2.386719 0 L 3.070312 0 C 3.269531 0 3.539062 -0.00390625 3.539062 -0.273438 C 3.539062 -0.578125 3.25 -1.015625 3.257812 -1.539062 C 3.261719 -1.792969 3.292969 -2.15625 3.542969 -2.15625 C 3.789062 -2.15625 3.832031 -1.792969 3.839844 -1.539062 C 3.847656 -1.101562 3.667969 -0.6875 3.667969 -0.273438 C 3.667969 -0.0351562 3.964844 -0.00390625 4.140625 0 L 4.824219 0 C 4.953125 0 5.292969 0.0234375 5.292969 -0.273438 C 5.292969 -0.605469 5.011719 -0.972656 5.011719 -1.539062 L 5.011719 -2.15625 C 5.011719 -2.722656 4.78125 -3.128906 4.222656 -3.128906 C 3.738281 -3.128906 3.269531 -2.792969 3.175781 -2.664062 C 3.066406 -2.949219 2.839844 -3.128906 2.46875 -3.128906 C 1.925781 -3.128906 1.613281 -2.761719 1.535156 -2.761719 C 1.496094 -2.761719 1.480469 -2.78125 1.46875 -2.816406 C 1.40625 -3.054688 1.292969 -3.128906 1.175781 -3.128906 C 1.097656 -3.128906 0.757812 -3.03125 0.605469 -2.988281 C 0.328125 -2.914062 0.03125 -2.859375 0.03125 -2.648438 Z M 0.03125 -2.648438 "/></g></g></g><g fill="#f8c9e6" fill-opacity="1"><g transform="translate(79.907851, 50.486043)"><g/></g></g><g fill="#f8c9e6" fill-opacity="1"><g transform="translate(81.078982, 50.486043)"><g><path d="M 0.0625 -0.28125 C 0.0625 0.0234375 0.402344 0 0.53125 0 L 1.324219 0 C 1.453125 0 1.792969 0.0234375 1.792969 -0.28125 C 1.792969 -0.679688 1.542969 -1.035156 1.542969 -1.539062 C 1.542969 -1.597656 1.570312 -1.65625 1.648438 -1.65625 C 2.21875 -1.65625 3.566406 -1.753906 3.566406 -3.089844 C 3.566406 -3.941406 2.976562 -4.4375 1.914062 -4.4375 L 0.53125 -4.4375 C 0.402344 -4.4375 0.0625 -4.460938 0.0625 -4.15625 C 0.0625 -3.660156 0.34375 -3.542969 0.34375 -2.21875 C 0.34375 -0.898438 0.0625 -0.78125 0.0625 -0.28125 Z M 1.804688 -3.546875 C 2.269531 -3.53125 2.359375 -3.285156 2.359375 -3.144531 C 2.359375 -3 2.269531 -2.730469 1.804688 -2.738281 C 1.667969 -2.742188 1.546875 -2.773438 1.546875 -2.898438 L 1.546875 -3.386719 C 1.546875 -3.511719 1.667969 -3.550781 1.804688 -3.546875 Z M 1.804688 -3.546875 "/></g></g></g><g fill="#f8c9e6" fill-opacity="1"><g transform="translate(84.613952, 50.486043)"><g><path d="M 0.03125 -2.648438 C 0.03125 -2.332031 0.332031 -2.167969 0.332031 -1.355469 C 0.332031 -0.804688 0.0546875 -0.5625 0.0546875 -0.273438 C 0.0546875 0.0234375 0.34375 0 0.476562 0 L 1.367188 0 C 1.496094 0 1.789062 0.0234375 1.789062 -0.273438 C 1.789062 -0.5625 1.507812 -0.804688 1.507812 -1.355469 C 1.511719 -1.628906 1.507812 -2.15625 1.824219 -2.15625 C 2.15625 -2.15625 1.871094 -1.539062 2.429688 -1.539062 C 2.871094 -1.539062 3.144531 -1.726562 3.144531 -2.316406 C 3.144531 -2.824219 2.777344 -3.128906 2.371094 -3.128906 C 2.039062 -3.128906 1.714844 -2.957031 1.480469 -2.785156 C 1.425781 -3.046875 1.292969 -3.128906 1.175781 -3.128906 C 1.097656 -3.128906 0.757812 -3.03125 0.605469 -2.988281 C 0.328125 -2.914062 0.03125 -2.859375 0.03125 -2.648438 Z M 0.03125 -2.648438 "/></g></g></g><g fill="#f8c9e6" fill-opacity="1"><g transform="translate(87.788337, 50.486043)"><g><path d="M 0.078125 -1.539062 C 0.078125 -0.75 0.660156 0.046875 1.742188 0.046875 C 2.613281 0.046875 3.003906 -0.269531 3.003906 -0.546875 C 3.003906 -0.726562 2.886719 -1.042969 2.605469 -1.042969 C 2.347656 -1.042969 2.226562 -0.769531 1.785156 -0.769531 C 1.65625 -0.769531 1.464844 -0.808594 1.464844 -0.910156 C 1.464844 -0.945312 1.492188 -0.953125 1.542969 -0.953125 C 1.636719 -0.953125 1.804688 -0.925781 2.019531 -0.996094 C 2.472656 -1.136719 2.957031 -1.4375 2.957031 -2.15625 C 2.957031 -2.804688 2.375 -3.128906 1.742188 -3.128906 C 0.601562 -3.128906 0.078125 -2.324219 0.078125 -1.539062 Z M 1.265625 -1.867188 C 1.371094 -2.136719 1.539062 -2.3125 1.695312 -2.3125 C 1.847656 -2.3125 1.882812 -2.136719 1.777344 -1.867188 C 1.671875 -1.601562 1.5 -1.425781 1.347656 -1.425781 C 1.191406 -1.425781 1.160156 -1.601562 1.265625 -1.867188 Z M 1.265625 -1.867188 "/></g></g></g><g fill="#f8c9e6" fill-opacity="1"><g transform="translate(90.808625, 50.486043)"><g><path d="M 1.855469 -0.738281 C 1.855469 -0.636719 1.78125 -0.578125 1.667969 -0.574219 C 1.234375 -0.574219 1.019531 -1.070312 0.535156 -1.070312 C 0.265625 -1.070312 0.0820312 -0.894531 0.0820312 -0.617188 C 0.0820312 -0.09375 0.757812 0.046875 1.445312 0.046875 C 2.183594 0.046875 2.871094 -0.242188 2.871094 -1.03125 C 2.871094 -2.171875 1.058594 -1.984375 1.058594 -2.34375 C 1.058594 -2.445312 1.152344 -2.460938 1.222656 -2.460938 C 1.550781 -2.460938 1.746094 -2.082031 2.316406 -2.082031 C 2.578125 -2.082031 2.769531 -2.214844 2.769531 -2.476562 C 2.769531 -3.011719 1.902344 -3.128906 1.402344 -3.128906 C 0.707031 -3.128906 0.078125 -2.8125 0.078125 -2.15625 C 0.078125 -0.863281 1.855469 -1.175781 1.855469 -0.738281 Z M 1.855469 -0.738281 "/></g></g></g><g fill="#f8c9e6" fill-opacity="1"><g transform="translate(93.754945, 50.486043)"><g><path d="M 1.855469 -0.738281 C 1.855469 -0.636719 1.78125 -0.578125 1.667969 -0.574219 C 1.234375 -0.574219 1.019531 -1.070312 0.535156 -1.070312 C 0.265625 -1.070312 0.0820312 -0.894531 0.0820312 -0.617188 C 0.0820312 -0.09375 0.757812 0.046875 1.445312 0.046875 C 2.183594 0.046875 2.871094 -0.242188 2.871094 -1.03125 C 2.871094 -2.171875 1.058594 -1.984375 1.058594 -2.34375 C 1.058594 -2.445312 1.152344 -2.460938 1.222656 -2.460938 C 1.550781 -2.460938 1.746094 -2.082031 2.316406 -2.082031 C 2.578125 -2.082031 2.769531 -2.214844 2.769531 -2.476562 C 2.769531 -3.011719 1.902344 -3.128906 1.402344 -3.128906 C 0.707031 -3.128906 0.078125 -2.8125 0.078125 -2.15625 C 0.078125 -0.863281 1.855469 -1.175781 1.855469 -0.738281 Z M 1.855469 -0.738281 "/></g></g></g><g fill="#f8c9e6" fill-opacity="1"><g transform="translate(96.701265, 50.486043)"><g/></g></g><g fill="#f8c9e6" fill-opacity="1"><g transform="translate(97.872396, 50.486043)"><g><path d="M -0.03125 -2.21875 C -0.03125 -0.972656 0.328125 0.046875 1.773438 0.046875 C 3.21875 0.046875 3.582031 -0.972656 3.582031 -2.21875 C 3.582031 -3.46875 3.21875 -4.484375 1.773438 -4.484375 C 0.328125 -4.484375 -0.03125 -3.46875 -0.03125 -2.21875 Z M 1.167969 -2.21875 C 1.167969 -2.953125 1.261719 -3.546875 1.773438 -3.546875 C 2.289062 -3.546875 2.382812 -2.953125 2.382812 -2.21875 C 2.382812 -1.488281 2.289062 -0.894531 1.773438 -0.894531 C 1.261719 -0.894531 1.167969 -1.488281 1.167969 -2.21875 Z M 1.167969 -2.21875 "/></g></g></g><g fill="#f8c9e6" fill-opacity="1"><g transform="translate(101.422775, 50.486043)"><g><path d="M 0.03125 -2.648438 C 0.03125 -2.320312 0.332031 -2.21875 0.332031 -1.539062 C 0.332031 -0.972656 0.0507812 -0.605469 0.0507812 -0.273438 C 0.0507812 0.0234375 0.390625 0 0.519531 0 L 1.203125 0 C 1.335938 0 1.785156 0.0234375 1.785156 -0.273438 C 1.785156 -0.621094 1.503906 -1.058594 1.5 -1.539062 C 1.496094 -1.789062 1.523438 -2.15625 1.789062 -2.15625 C 2.039062 -2.15625 2.082031 -1.792969 2.085938 -1.539062 C 2.09375 -1.101562 1.914062 -0.6875 1.914062 -0.273438 C 1.914062 0.0234375 2.363281 0 2.492188 0 L 3.070312 0 C 3.199219 0 3.539062 0.0234375 3.539062 -0.273438 C 3.539062 -0.605469 3.257812 -0.972656 3.257812 -1.539062 L 3.257812 -2.15625 C 3.257812 -2.722656 3.027344 -3.128906 2.46875 -3.128906 C 1.925781 -3.128906 1.613281 -2.761719 1.535156 -2.761719 C 1.496094 -2.761719 1.480469 -2.78125 1.46875 -2.816406 C 1.40625 -3.054688 1.292969 -3.128906 1.175781 -3.128906 C 1.097656 -3.128906 0.757812 -3.03125 0.605469 -2.988281 C 0.328125 -2.914062 0.03125 -2.859375 0.03125 -2.648438 Z M 0.03125 -2.648438 "/></g></g></g><g fill="#f8c9e6" fill-opacity="1"><g transform="translate(104.991646, 50.486043)"><g/></g></g><g fill="#f8c9e6" fill-opacity="1"><g transform="translate(106.162777, 50.486043)"><g><path d="M 0.34375 -2.21875 C 0.34375 -0.898438 0.0625 -0.78125 0.0625 -0.28125 C 0.0625 0.0234375 0.402344 0 0.53125 0 L 1.046875 0 C 1.175781 0 1.515625 0.0234375 1.515625 -0.28125 C 1.515625 -0.769531 1.246094 -0.894531 1.234375 -2.15625 L 2.285156 -0.167969 C 2.359375 0.015625 2.621094 0 2.734375 0 L 3.253906 0 C 3.382812 0 3.722656 0.0234375 3.722656 -0.28125 C 3.722656 -0.78125 3.441406 -0.898438 3.441406 -2.21875 C 3.441406 -3.542969 3.722656 -3.660156 3.722656 -4.15625 C 3.722656 -4.460938 3.382812 -4.4375 3.253906 -4.4375 L 2.734375 -4.4375 C 2.605469 -4.4375 2.265625 -4.460938 2.265625 -4.15625 C 2.265625 -3.667969 2.535156 -3.542969 2.546875 -2.277344 L 1.496094 -4.277344 L 1.496094 -4.273438 C 1.417969 -4.453125 1.160156 -4.4375 1.046875 -4.4375 L 0.53125 -4.4375 C 0.402344 -4.4375 0.0625 -4.460938 0.0625 -4.15625 C 0.0625 -3.660156 0.34375 -3.542969 0.34375 -2.21875 Z M 0.34375 -2.21875 "/></g></g></g><g fill="#f8c9e6" fill-opacity="1"><g transform="translate(109.947381, 50.486043)"><g><path d="M 0.078125 -1.539062 C 0.078125 -0.589844 0.636719 0.046875 1.320312 0.046875 C 1.746094 0.046875 1.804688 -0.136719 1.984375 -0.136719 C 2.152344 -0.136719 2.132812 0.046875 2.386719 0.046875 C 2.820312 0.046875 3.164062 -0.140625 3.164062 -0.417969 C 3.164062 -0.695312 2.929688 -0.835938 2.929688 -1.539062 C 2.929688 -2.199219 3.140625 -2.492188 3.140625 -2.78125 C 3.140625 -3.078125 2.871094 -3.128906 2.742188 -3.128906 C 2.597656 -3.128906 2.488281 -3.082031 2.167969 -3.082031 C 2.015625 -3.082031 1.894531 -3.132812 1.496094 -3.128906 C 1.046875 -3.125 0.078125 -2.824219 0.078125 -1.539062 Z M 1.523438 -2.316406 C 1.6875 -2.316406 1.796875 -2.007812 1.796875 -1.539062 C 1.796875 -1.078125 1.6875 -0.769531 1.523438 -0.769531 C 1.359375 -0.769531 1.25 -1.078125 1.25 -1.539062 C 1.25 -2.007812 1.359375 -2.316406 1.523438 -2.316406 Z M 1.523438 -2.316406 "/></g></g></g><g fill="#f8c9e6" fill-opacity="1"><g transform="translate(113.140255, 50.486043)"><g><path d="M 0.332031 -1.539062 C 0.332031 -0.976562 0.0546875 -0.605469 0.0546875 -0.273438 C 0.0546875 0.0234375 0.34375 0 0.476562 0 L 1.367188 0 C 1.496094 0 1.789062 0.0234375 1.789062 -0.273438 C 1.789062 -0.542969 1.507812 -1.011719 1.507812 -1.539062 C 1.507812 -1.769531 1.503906 -2.167969 1.503906 -2.496094 C 1.503906 -2.988281 1.332031 -3.128906 1.175781 -3.128906 C 1.097656 -3.128906 0.757812 -3.03125 0.605469 -2.988281 C 0.328125 -2.914062 0.03125 -2.859375 0.03125 -2.648438 C 0.03125 -2.320312 0.332031 -2.21875 0.332031 -1.539062 Z M 0.914062 -3.3125 C 1.09375 -3.3125 1.707031 -3.664062 1.707031 -4.070312 C 1.707031 -4.316406 1.527344 -4.484375 1.324219 -4.484375 C 1.136719 -4.484375 1.003906 -4.351562 0.914062 -4.242188 C 0.824219 -4.351562 0.691406 -4.484375 0.503906 -4.484375 C 0.300781 -4.484375 0.121094 -4.316406 0.121094 -4.070312 C 0.121094 -3.664062 0.734375 -3.3125 0.914062 -3.3125 Z M 0.914062 -3.3125 "/></g></g></g><g fill="#f8c9e6" fill-opacity="1"><g transform="translate(114.958591, 50.486043)"><g><path d="M 0.03125 -0.273438 C 0.03125 0.0234375 0.371094 0 0.5 0 L 1.292969 0 C 1.425781 0 1.761719 0.0234375 1.761719 -0.273438 C 1.761719 -0.765625 1.480469 -0.675781 1.480469 -2.28125 C 1.480469 -3.566406 1.761719 -3.683594 1.761719 -4.164062 C 1.761719 -4.460938 1.425781 -4.4375 1.292969 -4.4375 L 0.5 -4.4375 C 0.371094 -4.4375 0.03125 -4.460938 0.03125 -4.164062 C 0.03125 -3.683594 0.3125 -3.566406 0.3125 -2.28125 C 0.3125 -0.675781 0.03125 -0.765625 0.03125 -0.273438 Z M 0.03125 -0.273438 "/></g></g></g><g fill="#f8c9e6" fill-opacity="1"><g transform="translate(116.752273, 50.486043)"><g><path d="M 1.855469 -0.738281 C 1.855469 -0.636719 1.78125 -0.578125 1.667969 -0.574219 C 1.234375 -0.574219 1.019531 -1.070312 0.535156 -1.070312 C 0.265625 -1.070312 0.0820312 -0.894531 0.0820312 -0.617188 C 0.0820312 -0.09375 0.757812 0.046875 1.445312 0.046875 C 2.183594 0.046875 2.871094 -0.242188 2.871094 -1.03125 C 2.871094 -2.171875 1.058594 -1.984375 1.058594 -2.34375 C 1.058594 -2.445312 1.152344 -2.460938 1.222656 -2.460938 C 1.550781 -2.460938 1.746094 -2.082031 2.316406 -2.082031 C 2.578125 -2.082031 2.769531 -2.214844 2.769531 -2.476562 C 2.769531 -3.011719 1.902344 -3.128906 1.402344 -3.128906 C 0.707031 -3.128906 0.078125 -2.8125 0.078125 -2.15625 C 0.078125 -0.863281 1.855469 -1.175781 1.855469 -0.738281 Z M 1.855469 -0.738281 "/></g></g></g></svg>